<svg width="30" height="30" viewBox="0 0 30 30" fill="none" xmlns="http://www.w3.org/2000/svg">
<path d="M25 24.375H5C3.625 24.375 2.5 23.25 2.5 21.875V8.125C2.5 6.75 3.625 5.625 5 5.625H25C26.375 5.625 27.5 6.75 27.5 8.125V21.875C27.5 23.25 26.375 24.375 25 24.375Z" fill="#607D8B"/>
<path d="M18.125 22.5C22.2671 22.5 25.625 19.1421 25.625 15C25.625 10.8579 22.2671 7.5 18.125 7.5C13.9829 7.5 10.625 10.8579 10.625 15C10.625 19.1421 13.9829 22.5 18.125 22.5Z" fill="#455A64"/>
<path d="M18.125 20.625C21.2316 20.625 23.75 18.1066 23.75 15C23.75 11.8934 21.2316 9.375 18.125 9.375C15.0184 9.375 12.5 11.8934 12.5 15C12.5 18.1066 15.0184 20.625 18.125 20.625Z" fill="#42A5F5"/>
<path d="M21.125 13.125C20.375 12.25 19.25 11.75 18.125 11.75C17 11.75 15.875 12.25 15.125 13.125C14.8125 13.4375 14.875 13.9375 15.1875 14.25C15.5 14.5625 16 14.5 16.3125 14.1875C17.25 13.125 19 13.125 19.9375 14.1875C20.125 14.375 20.3125 14.4375 20.5625 14.4375C20.75 14.4375 20.9375 14.375 21.125 14.25C21.375 14 21.4375 13.4375 21.125 13.125Z" fill="#90CAF9"/>
<path d="M5 8.125H8.75V10H5V8.125Z" fill="#ADD8FB"/>
</svg>
