<svg width="47" height="47" viewBox="0 0 47 47" fill="none" xmlns="http://www.w3.org/2000/svg">
<path fill-rule="evenodd" clip-rule="evenodd" d="M28.1558 1.52733C26.8059 0.536062 25.1747 0.00152588 23.4999 0.00152588C21.8251 0.00152588 20.1939 0.536062 18.844 1.52733L16.118 3.52483C15.669 3.85478 15.147 4.07144 14.5963 4.15639L11.2505 4.67045C9.59647 4.92473 8.0666 5.69986 6.88326 6.8832C5.69993 8.06653 4.9248 9.5964 4.67052 11.2505L4.15646 14.5992C4.07151 15.1499 3.85485 15.6719 3.5249 16.1208L1.5274 18.8468C0.536131 20.1968 0.00159454 21.8279 0.00159454 23.5028C0.00159454 25.1776 0.536131 26.8087 1.5274 28.1587L3.5249 30.8847C3.85683 31.3341 4.07127 31.8541 4.15646 32.4063L4.67052 35.7492C4.9248 37.4033 5.69993 38.9331 6.88326 40.1165C8.0666 41.2998 9.59647 42.0749 11.2505 42.3292L14.5934 42.8433C15.1427 42.9285 15.6656 43.1429 16.115 43.4748L18.841 45.4723C20.191 46.4636 21.8221 46.9981 23.497 46.9981C25.1718 46.9981 26.8029 46.4636 28.1529 45.4723L30.8789 43.4748C31.3274 43.1441 31.8496 42.9273 32.4005 42.8433L35.7434 42.3292C37.3984 42.0753 38.9292 41.3 40.1132 40.1161C41.2972 38.9321 42.0725 37.4013 42.3263 35.7463L42.8404 32.4034C42.9256 31.8541 43.14 31.3312 43.472 30.8818L45.4695 28.1558C46.4607 26.8058 46.9953 25.1747 46.9953 23.4998C46.9953 21.825 46.4607 20.1939 45.4695 18.8439L43.472 16.1179C43.1421 15.6689 42.9255 15.1469 42.8404 14.5963L42.3293 11.2505C42.075 9.5964 41.2999 8.06653 40.1165 6.8832C38.9332 5.69986 37.4033 4.92473 35.7493 4.67045L32.4064 4.15639C31.8558 4.07133 31.3338 3.85468 30.8848 3.52483L28.1558 1.52733ZM21.4525 5.07583C22.6715 4.17989 24.3312 4.17989 25.5473 5.07583L28.2733 7.07333C29.2956 7.82533 30.4823 8.31589 31.7396 8.50977L35.0766 9.02089C36.5747 9.25002 37.7468 10.425 37.9759 11.9202L38.487 15.2601C38.6809 16.5145 39.1715 17.7012 39.9235 18.7264L41.921 21.4495C42.8169 22.6685 42.8169 24.3282 41.921 25.5443L39.9235 28.2703C39.1721 29.293 38.6792 30.4822 38.487 31.7366L37.9759 35.0736C37.8647 35.8028 37.5235 36.4773 37.0019 36.9989C36.4803 37.5205 35.8058 37.8617 35.0766 37.9729L31.7366 38.484C30.4823 38.6762 29.293 39.1691 28.2704 39.9205L25.5473 41.918C24.3283 42.8139 22.6686 42.8139 21.4525 41.918L18.7265 39.9205C17.7038 39.1691 16.5146 38.6762 15.2602 38.484L11.9232 37.9729C11.194 37.8617 10.5195 37.5205 9.99789 36.9989C9.47633 36.4773 9.13507 35.8028 9.0239 35.0736L8.51277 31.7336C8.32055 30.4793 7.82772 29.29 7.07633 28.2674L5.07883 25.5443C4.64308 24.9506 4.40812 24.2334 4.40812 23.4969C4.40812 22.7604 4.64308 22.0432 5.07883 21.4495L7.07633 18.7235C7.82833 17.7012 8.3189 16.5145 8.51277 15.2572L9.0239 11.9202C9.25302 10.4221 10.428 9.25002 11.9232 9.02089L15.2631 8.50977C16.5175 8.31754 17.7068 7.82471 18.7294 7.07333L21.4525 5.07583V5.07583ZM33.1349 19.9161C33.5241 19.4984 33.7359 18.9461 33.7258 18.3753C33.7158 17.8045 33.4846 17.26 33.0809 16.8563C32.6773 16.4527 32.1327 16.2214 31.5619 16.2114C30.9912 16.2013 30.4388 16.4132 30.0211 16.8023L20.5624 26.2611L16.9786 22.6773C16.561 22.2882 16.0086 22.0763 15.4379 22.0864C14.8671 22.0964 14.3225 22.3277 13.9189 22.7313C13.5152 23.135 13.284 23.6795 13.2739 24.2503C13.2639 24.8211 13.4757 25.3734 13.8649 25.7911L19.0055 30.9317C19.4186 31.3443 19.9786 31.576 20.5624 31.576C21.1462 31.576 21.7062 31.3443 22.1193 30.9317L33.1349 19.9161V19.9161Z" fill="#6D6D6D"/>
</svg>
