<svg width="16" height="18" viewBox="0 0 16 18" fill="none" xmlns="http://www.w3.org/2000/svg">
<path d="M13.25 7.5H2.75C1.92157 7.5 1.25 8.17157 1.25 9V15C1.25 15.8284 1.92157 16.5 2.75 16.5H13.25C14.0784 16.5 14.75 15.8284 14.75 15V9C14.75 8.17157 14.0784 7.5 13.25 7.5Z" stroke="black" stroke-width="2" stroke-linecap="round" stroke-linejoin="round"/>
<path d="M3.5 7.5V3.75C3.5 3.15326 3.73705 2.58097 4.15901 2.15901C4.58097 1.73705 5.15326 1.5 5.75 1.5H10.25C10.8467 1.5 11.419 1.73705 11.841 2.15901C12.2629 2.58097 12.5 3.15326 12.5 3.75V4.5" stroke="black" stroke-width="2" stroke-linecap="round" stroke-linejoin="round"/>
</svg>
