<svg width="20" height="18" viewBox="0 0 20 18" fill="none" xmlns="http://www.w3.org/2000/svg">
<path d="M5.20559 0.633707L5.20555 0.633741L5.20974 0.637802L5.86948 1.27814C5.89066 1.3009 5.9024 1.33092 5.90224 1.36208C5.90207 1.39421 5.88926 1.42498 5.86658 1.44774C5.86654 1.44778 5.8665 1.44782 5.86646 1.44785L3.04627 4.26766L3.04601 4.26792L2.44123 4.87386C2.41379 4.89883 2.37799 4.91271 2.34081 4.91271C2.3035 4.91271 2.26759 4.89874 2.24011 4.87361L0.384935 3.02584C0.373864 3.01481 0.36508 3.0017 0.359087 2.98727L0.0394339 3.12L0.359086 2.98727C0.353093 2.97283 0.350008 2.95736 0.350008 2.94173C0.350008 2.9261 0.353093 2.91062 0.359086 2.89619L0.0394339 2.76346L0.359087 2.89619C0.36508 2.88175 0.373864 2.86865 0.384936 2.85761L0.385522 2.85703L0.998803 2.24296L0.999075 2.24269C1.01011 2.23162 1.02322 2.22284 1.03765 2.21684C1.05209 2.21085 1.06756 2.20776 1.08319 2.20776C1.09882 2.20776 1.11429 2.21085 1.12873 2.21684C1.14316 2.22284 1.15627 2.23162 1.1673 2.24269L1.16728 2.24272L1.17096 2.2463L2.05768 3.11037L2.3044 3.35079L2.5487 3.1079L5.03621 0.634856L5.03621 0.634859L5.03736 0.633705C5.04839 0.622636 5.0615 0.613852 5.07593 0.607858C5.09037 0.601865 5.10584 0.598779 5.12147 0.598779C5.1371 0.598779 5.15258 0.601865 5.16701 0.607858C5.18144 0.613852 5.19455 0.622636 5.20559 0.633707ZM5.20559 6.85207L5.20587 6.85235L5.8677 7.51496C5.88918 7.53724 5.90112 7.56704 5.90095 7.59801C5.90079 7.62933 5.88825 7.65932 5.86607 7.68145L5.86575 7.68177L3.04555 10.5028L3.04543 10.5029L2.43624 11.1117C2.40885 11.1367 2.37308 11.1506 2.33592 11.1506C2.29879 11.1506 2.26305 11.1367 2.23566 11.1117L0.385443 9.26033L0.384935 9.25983C0.373864 9.24879 0.36508 9.23569 0.359086 9.22125C0.353093 9.20682 0.350008 9.19134 0.350008 9.17571C0.350008 9.16008 0.353093 9.14461 0.359086 9.13017C0.36508 9.11574 0.373864 9.10263 0.384935 9.0916L0.385286 9.09125L0.998568 8.47836L0.999074 8.47785C1.01011 8.46678 1.02322 8.45799 1.03765 8.452C1.05208 8.44601 1.06756 8.44292 1.08319 8.44292C1.09882 8.44292 1.11429 8.44601 1.12873 8.452C1.14316 8.45799 1.15627 8.46678 1.1673 8.47785L1.16728 8.47788L1.17107 8.48157L2.05779 9.34485L2.30531 9.58583L2.5495 9.34148L5.03701 6.85242L5.03736 6.85207C5.04839 6.841 5.0615 6.83221 5.07593 6.82622L4.94171 6.50298L5.07593 6.82622C5.09037 6.82022 5.10584 6.81714 5.12147 6.81714C5.1371 6.81714 5.15258 6.82022 5.16701 6.82622L5.30123 6.50298L5.16701 6.82622C5.18144 6.83221 5.19455 6.841 5.20559 6.85207ZM7.93053 8.18048L7.68305 7.93299L7.93053 8.18048C7.98211 8.1289 8.05205 8.09993 8.12499 8.09993H19.375C19.4479 8.09993 19.5179 8.1289 19.5694 8.18048C19.621 8.23205 19.65 8.302 19.65 8.37493V9.62493C19.65 9.69787 19.621 9.76781 19.5694 9.81939C19.5179 9.87096 19.4479 9.89993 19.375 9.89993H8.12499C8.05205 9.89993 7.9821 9.87096 7.93053 9.81939C7.87896 9.76781 7.84999 9.69787 7.84999 9.62493V8.37493C7.84999 8.302 7.87896 8.23205 7.93053 8.18048ZM7.93053 3.56939L7.68305 3.81687L7.93053 3.56938C7.87896 3.51781 7.84999 3.44786 7.84999 3.37493V2.12493C7.84999 2.052 7.87896 1.98205 7.93053 1.93048C7.98211 1.8789 8.05205 1.84993 8.12499 1.84993H19.375C19.4479 1.84993 19.5179 1.8789 19.5694 1.93048C19.621 1.98205 19.65 2.052 19.65 2.12493V3.37493C19.65 3.44787 19.621 3.51781 19.5694 3.56938C19.5179 3.62096 19.4479 3.64993 19.375 3.64993H8.12499C8.05205 3.64993 7.98211 3.62096 7.93053 3.56939ZM0.95194 15.2499C0.95194 14.4137 1.65289 13.7249 2.49999 13.7249C2.90444 13.7249 3.29233 13.8856 3.57832 14.1716C3.86432 14.4576 4.02499 14.8455 4.02499 15.2499C4.02499 15.6544 3.86432 16.0423 3.57832 16.3283C3.29233 16.6143 2.90444 16.7749 2.49999 16.7749C1.65358 16.7749 0.95194 16.0861 0.95194 15.2499ZM8.12499 14.3499H19.375C19.4479 14.3499 19.5179 14.3789 19.5694 14.4305C19.621 14.482 19.65 14.552 19.65 14.6249V15.8749C19.65 15.9479 19.621 16.0178 19.5694 16.0694C19.5179 16.121 19.4479 16.1499 19.375 16.1499H8.12499C8.05205 16.1499 7.9821 16.121 7.93053 16.0694C7.87896 16.0178 7.84999 15.9479 7.84999 15.8749V14.6249C7.84999 14.552 7.87896 14.482 7.93053 14.4305C7.9821 14.3789 8.05205 14.3499 8.12499 14.3499Z" stroke="#8F8F8F" stroke-width="0.7"/>
</svg>
