<svg width="20" height="21" viewBox="0 0 20 21" fill="none" xmlns="http://www.w3.org/2000/svg">
<path d="M18.3016 11.011L18.3018 11.0098C18.854 6.52057 15.7571 2.43026 11.3271 1.72109V0.394237C15.7221 1.00829 19.1779 4.56089 19.6009 9.02524L19.6011 9.02706C20.1202 14.2189 16.4492 18.8394 11.3271 19.555V18.2496C14.9909 17.6766 17.8338 14.7129 18.3016 11.011ZM9.32218 10.799V5.33232H10.1259V10.2453V10.4446L10.2973 10.5463L14.5038 13.0422L14.1173 13.6761L9.32218 10.799ZM4.1485 2.26952C5.45626 1.27264 6.99944 0.646319 8.62218 0.423469V1.73615C7.34412 1.9623 6.13545 2.48035 5.0966 3.25077L4.1485 2.26952ZM1.70423 8.64223H0.393515C0.617834 7.0189 1.25582 5.4803 2.24604 4.17456L3.18591 5.11443C2.42354 6.16167 1.92101 7.3713 1.70423 8.64223ZM3.18732 14.8751L2.25653 15.8124C1.27465 14.5055 0.636851 12.9714 0.405341 11.3472H1.71305C1.92575 12.6211 2.43036 13.8286 3.18732 14.8751ZM8.62218 19.6219C6.99823 19.3805 5.46233 18.7294 4.15962 17.7302L5.08986 16.839C6.13734 17.5977 7.34647 18.1035 8.62218 18.3165V19.6219Z" stroke="black" stroke-width="0.7"/>
</svg>
