<svg width="24" height="28" viewBox="0 0 24 28" fill="none" xmlns="http://www.w3.org/2000/svg">
<path d="M17.8571 6.85714C17.8571 10.0924 15.2352 12.7143 12 12.7143C8.76478 12.7143 6.14286 10.0924 6.14286 6.85714C6.14286 3.62193 8.76478 1 12 1C15.2352 1 17.8571 3.62193 17.8571 6.85714ZM12 17.2857C13.4634 17.2857 14.8569 16.9759 16.1184 16.4286H16.8C20.2227 16.4286 23 19.2059 23 22.6286V24.8571C23 25.7245 22.2959 26.4286 21.4286 26.4286H2.57143C1.70407 26.4286 1 25.7245 1 24.8571V22.6286C1 19.2059 3.77728 16.4286 7.2 16.4286H7.88237C9.1467 16.9754 10.5353 17.2857 12 17.2857Z" stroke="#FF4A4A" stroke-width="2"/>
</svg>
